<?xml version="1.0" encoding="UTF-8"?> <svg xmlns="http://www.w3.org/2000/svg" width="512" height="512" viewBox="0 0 512 512" fill="none"><g clip-path="url(#clip0_207_21)"><path d="M511.99 224.592C511.991 222.55 511.38 220.489 510.086 218.711C509.638 218.096 509.129 217.553 508.58 217.072C508.582 217.071 508.583 217.07 508.585 217.068L474.074 186.865C481.51 180.877 486.28 171.707 486.28 161.439V145.029C486.28 100.917 450.392 65.0291 406.28 65.0291C362.168 65.0291 326.28 100.917 326.28 145.029C326.28 189.141 362.168 225.029 406.28 225.029C411.803 225.029 416.28 220.552 416.28 215.029C416.28 209.506 411.803 205.029 406.28 205.029C373.196 205.029 346.28 178.113 346.28 145.029C346.28 111.945 373.196 85.0291 406.28 85.0291C439.364 85.0291 466.28 111.945 466.28 145.029V161.439C466.28 168.409 460.61 174.079 453.639 174.079C446.669 174.079 440.999 168.409 440.999 161.439V147.621V118.871C440.999 116.121 439.867 113.493 437.869 111.604C429.291 103.495 418.073 99.0291 406.28 99.0291C380.916 99.0291 360.28 119.665 360.28 145.029C360.28 170.393 380.916 191.029 406.28 191.029C414.862 191.029 423.135 188.653 430.313 184.239C436.052 190.109 443.979 193.823 452.762 194.057C453.299 194.995 453.989 195.865 454.848 196.617L485.992 223.873L406 282.068V255.998C406 250.475 401.523 245.998 396 245.998C390.477 245.998 386 250.475 386 255.998V296.618L311.346 350.929L261.883 314.945C258.376 312.393 253.624 312.393 250.117 314.945L200.654 350.929L26.442 224.188L83.345 174.389C87.501 170.752 87.921 164.434 84.284 160.278C80.646 156.122 74.329 155.702 70.173 159.339L3.688 216.838C3.684 216.842 3.68 216.845 3.676 216.849C1.433 218.683 0 221.47 0 224.593V501.997C0 507.52 4.477 511.997 10 511.997H502C507.523 511.997 512 507.52 512 501.997V224.593C511.997 224.593 511.993 224.592 511.99 224.592ZM421 147.622V161.44V166.455C416.692 169.426 411.588 171.029 406.281 171.029C391.945 171.029 380.281 159.365 380.281 145.029C380.281 130.693 391.945 119.029 406.281 119.029C411.589 119.029 416.692 120.632 421 123.603V147.622ZM20 244.234L183.656 363.295L20 482.356V244.234ZM40.744 491.997L256 335.397L471.256 491.997H40.744V491.997ZM492 482.356L328.344 363.295L492 244.234V482.356Z" fill="#FFA726"></path><path d="M337.347 67.239L262.548 2.43904C258.748 -0.85396 253.18 -0.76196 249.483 2.42704C249.48 2.42404 249.478 2.42204 249.475 2.41904L213.475 33.419C209.29 37.023 208.819 43.337 212.423 47.522C214.401 49.819 217.194 50.997 220.005 50.997C222.316 50.997 224.638 50.201 226.526 48.575L255.982 23.21L304.253 65.028H116C110.477 65.028 106 69.505 106 75.028V218.997C106 224.52 110.477 228.997 116 228.997C121.523 228.997 126 224.52 126 218.997V85.029H330.799C330.766 84.946 330.741 84.874 330.709 84.793C330.737 84.793 330.766 84.797 330.794 84.797C333.594 84.797 336.379 83.627 338.357 81.345C341.973 77.171 341.521 70.855 337.347 67.239Z" fill="#FFA726"></path><path d="M257.393 165.997H157.417C151.894 165.997 147.417 170.474 147.417 175.997C147.417 181.52 151.894 185.997 157.417 185.997H257.393C262.916 185.997 267.393 181.52 267.393 175.997C267.393 170.474 262.916 165.997 257.393 165.997Z" fill="#FFA726"></path><path d="M256 115.997H157.417C151.894 115.997 147.417 120.474 147.417 125.997C147.417 131.52 151.894 135.997 157.417 135.997H256C261.523 135.997 266 131.52 266 125.997C266 120.474 261.523 115.997 256 115.997Z" fill="#FFA726"></path><path d="M123.07 252.257C121.21 250.397 118.63 249.327 116 249.327C113.37 249.327 110.79 250.397 108.93 252.257C107.07 254.117 106 256.697 106 259.327C106 261.967 107.07 264.537 108.93 266.397C110.79 268.268 113.37 269.327 116 269.327C118.63 269.327 121.21 268.267 123.07 266.397C124.93 264.537 126 261.967 126 259.327C126 256.697 124.93 254.117 123.07 252.257Z" fill="#FFA726"></path><path d="M323.589 215.289H304C298.477 215.289 294 219.766 294 225.289C294 230.812 298.477 235.289 304 235.289H323.589C329.112 235.289 333.589 230.812 333.589 225.289C333.589 219.766 329.112 215.289 323.589 215.289Z" fill="#FFA726"></path><path d="M259.811 215.289H259.701C254.178 215.289 249.701 219.766 249.701 225.289C249.701 230.812 254.178 235.289 259.701 235.289H259.811C265.333 235.289 269.811 230.812 269.811 225.289C269.811 219.766 265.334 215.289 259.811 215.289Z" fill="#FFA726"></path><path d="M212 215.289H157.367C151.844 215.289 147.367 219.766 147.367 225.289C147.367 230.812 151.844 235.289 157.367 235.289H212C217.523 235.289 222 230.812 222 225.289C222 219.766 217.523 215.289 212 215.289Z" fill="#FFA726"></path></g><defs><clipPath id="clip0_207_21"><rect width="512" height="512" fill="white"></rect></clipPath></defs></svg> 