<?xml version="1.0" encoding="UTF-8"?> <svg xmlns="http://www.w3.org/2000/svg" width="512" height="512" viewBox="0 0 512 512" fill="none"><g clip-path="url(#clip0_207_61)"><path d="M495.121 3.66859e-06C444.587 0.0768037 367.403 0.281604 301.628 34.1333H128C121.21 34.1333 114.699 36.8305 109.898 41.6314C105.097 46.4323 102.4 52.9438 102.4 59.7333V110.933C102.4 110.933 32.2304 110.993 31.6757 111.036C22.8958 111.869 14.7545 115.987 8.88114 122.566C3.00778 129.145 -0.164229 137.7 -3.32054e-05 146.517V450.133C-0.146709 465.96 5.82546 481.231 16.6696 492.759C27.5138 504.286 42.3917 511.18 58.1973 512H426.667C442.503 511.98 457.684 505.68 468.882 494.482C480.08 483.284 486.38 468.103 486.4 452.267V93.7899C498.004 70.4074 506.518 45.6149 511.727 20.0363C512.175 17.576 512.078 15.0472 511.441 12.6289C510.804 10.2105 509.643 7.96173 508.041 6.0416C506.462 4.14905 504.486 2.62684 502.253 1.58278C500.021 0.538727 497.586 -0.00162451 495.121 3.66859e-06V3.66859e-06ZM102.4 443.733H76.8C74.5368 443.733 72.3663 442.834 70.766 441.234C69.1657 439.634 68.2666 437.463 68.2666 435.2V145.067C68.2368 139.059 66.6049 133.167 63.5392 128H102.4V443.733ZM59.7333 494.933H58.4618C47.1226 494.228 36.4921 489.177 28.7819 480.833C21.0717 472.489 16.8756 461.493 17.0666 450.133V146.517C16.9462 142.026 18.4994 137.649 21.4246 134.238C24.3498 130.827 28.4383 128.625 32.896 128.06C33.3397 128.02 33.7834 128 34.2272 128C36.4508 127.998 38.6524 128.44 40.7036 129.298C42.7548 130.157 44.6144 131.415 46.1738 133.001C47.7687 134.579 49.0342 136.458 49.897 138.53C50.7598 140.601 51.2027 142.823 51.2 145.067V435.2C51.2 441.99 53.8971 448.501 58.698 453.302C63.499 458.103 70.0104 460.8 76.8 460.8H101.547C99.5676 470.431 94.3278 479.086 86.7109 485.304C79.094 491.521 69.5659 494.923 59.7333 494.933V494.933ZM426.667 494.933H101.547C107.229 489.377 111.742 482.739 114.82 475.412C117.897 468.084 119.477 460.214 119.467 452.267V59.7333C119.467 57.4702 120.366 55.2997 121.966 53.6994C123.566 52.0991 125.737 51.2 128 51.2H273.604C218.291 91.1019 176.708 162.176 176.418 288.802C173.685 297.564 171.894 306.592 171.076 315.733H153.6C151.337 315.733 149.166 316.632 147.566 318.233C145.966 319.833 145.067 322.004 145.067 324.267C145.067 326.53 145.966 328.7 147.566 330.301C149.166 331.901 151.337 332.8 153.6 332.8H435.2C437.463 332.8 439.634 331.901 441.234 330.301C442.834 328.7 443.733 326.53 443.733 324.267C443.733 322.004 442.834 319.833 441.234 318.233C439.634 316.632 437.463 315.733 435.2 315.733H188.177C188.755 310.045 189.776 304.41 191.232 298.88H192.751C241.213 297.862 288.72 285.204 331.264 261.973C333.741 260.656 335.857 258.753 337.43 256.429C339.002 254.106 339.982 251.433 340.284 248.644C340.583 245.889 340.204 243.102 339.181 240.526C338.158 237.951 336.521 235.664 334.413 233.865L330.411 230.451L371.098 230.562C375.069 230.555 378.917 229.175 381.986 226.654C385.818 223.497 390.733 219.221 394.786 215.637C396.616 214.011 398.074 212.01 399.061 209.77C400.049 207.531 400.544 205.105 400.512 202.657C400.479 200.209 399.921 197.797 398.874 195.584C397.827 193.372 396.317 191.41 394.445 189.833L381.79 179.2H422.664C425.184 179.205 427.674 178.653 429.955 177.582C432.236 176.51 434.252 174.947 435.857 173.005C439.708 168.351 443.369 163.726 446.839 159.13C449.457 155.638 450.634 151.275 450.125 146.94C449.617 142.606 447.463 138.633 444.109 135.842L424.636 119.526L462.754 119.629C465.027 119.554 467.262 119.032 469.333 118.093V452.267C469.32 463.578 464.82 474.423 456.822 482.422C448.823 490.42 437.978 494.92 426.667 494.933ZM462.788 102.562L414.447 102.4C411.702 102.398 409.024 103.242 406.775 104.816C404.526 106.389 402.817 108.618 401.879 111.197C400.941 113.777 400.821 116.582 401.533 119.233C402.246 121.884 403.757 124.25 405.862 126.012L433.254 148.813C429.935 153.207 426.428 157.645 422.69 162.099H371.652C368.911 162.097 366.235 162.937 363.987 164.507C361.739 166.078 360.029 168.301 359.088 170.876C358.147 173.451 358.021 176.253 358.727 178.902C359.433 181.552 360.936 183.92 363.034 185.685L383.445 202.854C379.563 206.268 374.852 210.406 371.123 213.47L320.375 213.333C317.642 213.334 314.975 214.172 312.732 215.735C310.49 217.298 308.78 219.511 307.834 222.075C306.887 224.639 306.749 227.432 307.439 230.077C308.128 232.722 309.611 235.092 311.689 236.868L323.243 246.903C284.33 267.929 241.14 279.818 196.949 281.668C231.526 194.227 353.57 101.769 354.987 100.693C355.883 100.021 356.638 99.1786 357.209 98.2144C357.78 97.2501 358.156 96.1828 358.314 95.0735C358.473 93.9641 358.411 92.8344 358.133 91.7489C357.855 90.6633 357.366 89.6432 356.693 88.7467C356.021 87.8502 355.179 87.0949 354.214 86.524C353.25 85.953 352.183 85.5776 351.073 85.4191C349.964 85.2606 348.834 85.3222 347.749 85.6003C346.663 85.8784 345.643 86.3676 344.747 87.04C339.362 91.0763 242.227 164.693 195.456 245.948C215.834 17.6384 395.75 17.2117 494.933 17.0667C488.633 47.0355 477.793 75.8663 462.788 102.562V102.562Z" fill="#FFA726"></path><path d="M435.2 358.4H221.867C219.604 358.4 217.433 359.299 215.833 360.899C214.232 362.5 213.333 364.67 213.333 366.933C213.333 369.196 214.232 371.367 215.833 372.967C217.433 374.568 219.604 375.467 221.867 375.467H435.2C437.463 375.467 439.634 374.568 441.234 372.967C442.834 371.367 443.733 369.196 443.733 366.933C443.733 364.67 442.834 362.5 441.234 360.899C439.634 359.299 437.463 358.4 435.2 358.4Z" fill="#FFA726"></path><path d="M153.6 375.467H187.733C189.997 375.467 192.167 374.568 193.767 372.967C195.368 371.367 196.267 369.196 196.267 366.933C196.267 364.67 195.368 362.5 193.767 360.899C192.167 359.299 189.997 358.4 187.733 358.4H153.6C151.337 358.4 149.166 359.299 147.566 360.899C145.966 362.5 145.067 364.67 145.067 366.933C145.067 369.196 145.966 371.367 147.566 372.967C149.166 374.568 151.337 375.467 153.6 375.467Z" fill="#FFA726"></path><path d="M435.2 401.067H332.8C330.537 401.067 328.366 401.966 326.766 403.566C325.166 405.167 324.267 407.337 324.267 409.6C324.267 411.863 325.166 414.034 326.766 415.634C328.366 417.235 330.537 418.134 332.8 418.134H435.2C437.463 418.134 439.634 417.235 441.234 415.634C442.834 414.034 443.733 411.863 443.733 409.6C443.733 407.337 442.834 405.167 441.234 403.566C439.634 401.966 437.463 401.067 435.2 401.067Z" fill="#FFA726"></path><path d="M298.667 401.067H153.6C151.337 401.067 149.166 401.966 147.566 403.566C145.966 405.167 145.067 407.337 145.067 409.6C145.067 411.863 145.966 414.034 147.566 415.634C149.166 417.235 151.337 418.134 153.6 418.134H298.667C300.93 418.134 303.1 417.235 304.701 415.634C306.301 414.034 307.2 411.863 307.2 409.6C307.2 407.337 306.301 405.167 304.701 403.566C303.1 401.966 300.93 401.067 298.667 401.067Z" fill="#FFA726"></path><path d="M281.6 443.733H153.6C151.337 443.733 149.166 444.632 147.566 446.233C145.966 447.833 145.067 450.004 145.067 452.267C145.067 454.53 145.966 456.7 147.566 458.301C149.166 459.901 151.337 460.8 153.6 460.8H281.6C283.863 460.8 286.034 459.901 287.634 458.301C289.234 456.7 290.133 454.53 290.133 452.267C290.133 450.004 289.234 447.833 287.634 446.233C286.034 444.632 283.863 443.733 281.6 443.733Z" fill="#FFA726"></path></g><defs><clipPath id="clip0_207_61"><rect width="512" height="512" fill="white"></rect></clipPath></defs></svg> 